<?xml version="1.0" encoding="UTF-8" standalone="no" ?>
<!DOCTYPE svg PUBLIC "-//W3C//DTD SVG 1.1//EN" "http://www.w3.org/Graphics/SVG/1.1/DTD/svg11.dtd">
<svg xmlns="http://www.w3.org/2000/svg" xmlns:xlink="http://www.w3.org/1999/xlink" version="1.1" width="1080" height="1080" viewBox="0 0 1080 1080" xml:space="preserve">
<desc>Created with Fabric.js 5.2.4</desc>
<defs>
</defs>
<g transform="matrix(1 0 0 1 540 540)" id="5c1f6ebb-e650-4b3c-a9ba-83bf3fcb04ba"  >
</g>
<g transform="matrix(1 0 0 1 540 540)" id="1610b9b7-937c-4a03-8cc2-0e869636fea9"  >
<rect style="stroke: none; stroke-width: 1; stroke-dasharray: none; stroke-linecap: butt; stroke-dashoffset: 0; stroke-linejoin: miter; stroke-miterlimit: 4; fill: rgb(255,255,255); fill-rule: nonzero; opacity: 1; visibility: hidden;" vector-effect="non-scaling-stroke"  x="-540" y="-540" rx="0" ry="0" width="1080" height="1080" />
</g>
<g transform="matrix(49.21 0 0 49.21 540 540)"  >
<path style="stroke: rgb(255,255,255); stroke-width: 0; stroke-dasharray: none; stroke-linecap: butt; stroke-dashoffset: 0; stroke-linejoin: miter; stroke-miterlimit: 4; fill: rgb(255,255,255); fill-rule: nonzero; opacity: 1;" vector-effect="non-scaling-stroke"  transform=" translate(-12.04, -12)" d="M 18.244 2.25 L 21.552 2.25 L 14.325 10.51 L 22.826999999999998 21.75 L 16.17 21.75 L 10.956000000000001 14.933 L 4.99 21.75 L 1.68 21.75 L 9.41 12.915 L 1.254 2.25 L 8.08 2.25 L 12.793 8.481 z M 17.083 19.77 L 18.915999999999997 19.77 L 7.084 4.126 L 5.117 4.126 z" stroke-linecap="round" />
</g>
</svg>