<svg 
 xmlns="http://www.w3.org/2000/svg"
 xmlns:xlink="http://www.w3.org/1999/xlink"
 width="1896px" height="577px">
<path fill-rule="evenodd"  fill="rgb(255, 120, 0)"
 d="M1805.000,459.1000 C1816.187,452.008 1820.089,452.255 1832.696,452.255 C1849.267,452.255 1869.803,458.560 1880.000,469.000 C1890.055,479.444 1896.000,492.032 1896.000,509.000 C1896.000,527.765 1883.895,543.695 1870.724,553.579 C1857.889,563.239 1843.545,565.000 1824.000,565.000 C1801.481,565.000 1784.541,563.698 1773.211,550.642 C1766.838,543.300 1758.264,528.685 1756.000,514.000 L1801.000,514.000 C1803.974,528.195 1813.129,533.000 1828.000,533.000 C1847.120,533.000 1852.827,524.177 1852.1000,508.000 C1852.1000,493.167 1838.805,487.482 1828.000,488.000 C1816.242,488.000 1812.371,486.232 1803.000,496.000 L1757.000,497.000 L1772.1000,402.1000 L1888.000,402.1000 L1888.000,442.000 L1808.000,442.000 L1805.000,459.1000 ZM1674.034,572.003 C1651.759,572.003 1631.947,565.623 1619.000,550.000 C1606.190,534.544 1601.993,511.843 1601.993,484.753 C1601.993,457.168 1605.190,433.456 1618.000,417.1000 C1630.947,402.544 1652.037,397.005 1674.869,397.005 C1696.028,397.005 1715.471,403.213 1728.000,419.000 C1740.389,434.791 1743.987,457.749 1743.987,484.504 C1743.987,511.594 1740.529,534.381 1728.000,550.000 C1715.471,565.623 1695.611,572.003 1674.034,572.003 ZM1672.631,431.008 C1658.881,431.008 1652.008,448.508 1652.008,483.504 C1652.008,518.504 1659.006,535.1000 1673.003,535.1000 C1686.999,535.1000 1693.999,518.581 1693.999,483.738 C1693.999,448.584 1686.875,431.008 1672.631,431.008 ZM1569.1000,551.1000 C1557.327,561.600 1539.862,566.1000 1519.000,566.1000 C1491.800,566.1000 1471.206,560.396 1459.000,546.000 C1452.046,538.106 1450.771,528.637 1450.000,513.000 L1495.1000,513.000 C1497.062,528.543 1510.319,532.865 1519.000,533.000 C1534.918,532.865 1545.000,528.708 1545.000,514.000 C1545.000,507.655 1544.534,506.003 1541.000,502.000 C1538.319,499.099 1531.272,496.000 1522.000,496.000 L1502.1000,496.000 L1502.1000,462.1000 L1516.000,462.1000 C1523.881,462.1000 1528.001,460.999 1529.000,459.1000 C1532.709,457.061 1538.000,452.848 1538.000,447.000 C1538.000,440.417 1533.914,434.000 1518.000,434.000 C1505.041,434.000 1498.006,436.974 1495.1000,454.000 L1451.000,454.000 C1451.338,448.521 1451.801,443.563 1452.694,439.039 L1361.991,439.039 L1361.1000,473.000 L1446.000,473.000 L1446.000,513.000 L1361.1000,513.000 L1361.991,564.998 L1311.992,564.998 L1311.992,402.004 L1461.014,402.004 L1461.014,421.080 C1461.639,420.374 1462.291,419.678 1463.000,419.000 C1478.558,404.131 1495.309,402.855 1517.585,402.052 C1536.887,401.355 1553.410,404.797 1564.1000,412.1000 C1576.434,421.206 1579.1000,433.225 1579.1000,447.000 C1579.1000,455.050 1577.172,459.583 1572.1000,464.1000 C1570.526,468.407 1567.106,472.061 1559.1000,474.1000 C1577.769,481.193 1589.000,495.666 1589.000,513.000 C1589.000,528.945 1582.669,542.404 1569.1000,551.1000 ZM1240.000,565.000 L1169.000,464.000 L1169.000,565.000 L1127.1000,565.000 L1127.1000,402.000 L1186.000,402.000 L1259.000,499.1000 L1259.000,402.000 L1298.1000,402.000 L1298.992,564.998 L1240.000,565.000 ZM953.000,315.000 L680.000,315.000 L612.000,159.000 L722.1000,234.1000 C722.1000,234.1000 728.860,236.625 729.255,232.034 C731.075,210.903 742.000,83.1000 742.000,83.1000 L844.1000,202.1000 C844.1000,202.1000 846.172,204.739 847.1000,204.1000 C849.664,205.238 851.1000,203.1000 851.1000,203.1000 L953.000,-0.000 L1053.1000,202.1000 C1053.596,204.748 1058.715,205.231 1058.1000,203.1000 L1164.000,84.1000 L1177.000,233.1000 C1177.000,233.1000 1177.536,235.756 1179.000,236.000 C1180.534,236.256 1183.000,234.1000 1183.000,234.1000 L1293.1000,159.000 L1225.1000,315.000 L953.000,315.000 ZM680.000,333.1000 L1223.1000,333.1000 L1223.1000,382.000 L680.000,382.000 L680.000,333.1000 ZM865.697,401.817 C891.798,401.817 906.627,403.759 912.1000,407.1000 C923.878,415.050 935.558,424.696 935.997,444.491 C940.230,437.019 945.798,430.295 952.741,424.339 C970.368,409.241 993.824,401.689 1023.102,401.689 C1051.118,401.689 1073.865,409.395 1091.337,424.806 C1108.964,440.218 1117.781,460.223 1117.781,484.819 C1117.781,508.950 1108.887,528.565 1091.101,543.663 C1073.470,558.765 1050.409,566.314 1021.921,566.314 C993.430,566.314 970.368,558.765 952.741,543.663 C934.952,528.719 926.061,509.184 926.061,485.052 C926.061,481.459 926.263,477.978 926.624,474.587 C920.111,483.225 910.229,489.426 897.000,489.1000 C905.923,492.287 913.724,494.842 918.1000,499.000 C925.358,503.948 933.290,514.336 933.1000,530.000 C934.707,541.098 932.432,549.574 932.1000,553.000 C933.564,556.101 935.158,560.595 936.1000,565.000 L893.000,565.000 C890.593,561.529 879.275,559.870 878.000,546.000 C877.007,532.623 877.681,516.570 873.1000,512.000 C870.315,507.434 864.630,508.000 854.1000,508.000 L815.000,508.000 L814.710,565.061 L769.1000,565.000 L595.000,565.000 L595.000,462.000 L551.000,565.000 L515.1000,565.000 L473.000,462.000 L473.000,565.000 L433.1000,565.000 L432.1000,565.000 L389.000,565.000 L378.1000,536.000 L312.000,536.000 L301.1000,565.000 L256.000,565.000 L313.000,402.000 L375.1000,402.000 L432.1000,562.190 L432.1000,402.000 L495.1000,402.000 L534.000,487.000 L571.1000,402.000 L769.1000,402.000 L865.697,401.817 ZM988.971,517.349 C997.622,525.791 1008.761,530.011 1022.394,530.011 C1035.892,530.011 1047.034,525.727 1055.816,517.151 C1064.596,508.712 1068.989,497.896 1068.989,484.705 C1068.989,470.856 1064.399,459.647 1055.227,451.072 C1046.444,443.028 1035.302,439.004 1021.804,439.004 C1008.435,439.004 997.490,443.291 988.971,451.863 C980.321,460.306 975.996,471.187 975.996,484.507 C975.996,497.831 980.321,508.777 988.971,517.349 ZM814.990,471.992 L860.640,471.992 C868.940,471.992 874.780,471.294 878.162,469.896 C885.385,466.824 888.998,461.513 888.998,453.969 C888.998,445.727 884.1000,440.488 877.009,438.251 C874.088,437.413 868.630,436.994 860.640,436.994 L814.990,436.994 L814.990,471.992 ZM344.1000,444.000 L324.000,504.000 L366.1000,504.000 L344.1000,444.000 ZM679.000,464.1000 L765.000,464.1000 L765.000,499.000 L679.000,499.000 L679.000,525.000 L769.1000,524.000 L769.1000,440.000 L679.000,440.000 L679.000,464.1000 ZM-0.000,395.000 L241.1000,395.000 L241.1000,577.000 L-0.000,577.000 L-0.000,395.000 ZM50.000,548.980 C67.618,565.313 92.571,569.1000 119.1000,569.1000 C178.334,569.1000 207.966,545.049 215.1000,497.933 L166.347,497.563 C159.758,521.570 146.281,529.127 120.1000,528.962 C78.983,528.687 80.839,500.335 80.1000,481.918 C81.137,466.306 91.365,446.272 119.1000,445.885 C142.126,445.585 158.902,452.623 165.348,471.933 L216.1000,471.909 C209.796,428.633 172.805,402.352 114.543,402.010 C88.803,401.860 69.698,410.146 52.1000,423.864 C33.080,440.197 23.1000,460.816 23.1000,487.924 C23.1000,513.401 32.379,532.812 50.000,548.980 Z"/>
</svg>